HIERARCHY
ROOT Hips
{
	OFFSET 0.000000 0.000000 0.000000
	CHANNELS 6 Xposition Yposition Zposition Zrotation Yrotation Xrotation 
	JOINT LHipJoint
	{
		OFFSET 0.000000 0.000000 0.000000
		CHANNELS 3 Zrotation Yrotation Xrotation
		JOINT LeftUpLeg
		{
			OFFSET 1.363060 -1.794630 0.839290
			CHANNELS 3 Zrotation Yrotation Xrotation
			JOINT LeftLeg
			{
				OFFSET 2.448110 -6.726130 0.000000
				CHANNELS 3 Zrotation Yrotation Xrotation
				JOINT LeftFoot
				{
					OFFSET 2.562200 -7.039590 0.000000
					CHANNELS 3 Zrotation Yrotation Xrotation
					JOINT LeftToeBase
					{
						OFFSET 0.157640 -0.433110 2.322550
						CHANNELS 3 Zrotation Yrotation Xrotation
						End Site
						{
							OFFSET 0.000000 0.000000 0.000000
						}
					}
				}
			}
		}
	}
	JOINT RHipJoint
	{
		OFFSET 0.000000 0.000000 0.000000
		CHANNELS 3 Zrotation Yrotation Xrotation
		JOINT RightUpLeg
		{
			OFFSET -1.305520 -1.794630 0.839290
			CHANNELS 3 Zrotation Yrotation Xrotation
			JOINT RightLeg
			{
				OFFSET -2.542530 -6.985550 0.000000
				CHANNELS 3 Zrotation Yrotation Xrotation
				JOINT RightFoot
				{
					OFFSET -2.568260 -7.056230 0.000000
					CHANNELS 3 Zrotation Yrotation Xrotation
					JOINT RightToeBase
					{
						OFFSET -0.164730 -0.452590 2.363150
						CHANNELS 3 Zrotation Yrotation Xrotation
						End Site
						{
							OFFSET 0.000000 0.000000 0.000000
						}
					}
				}
			}
		}
	}
}
MOTION
Frames: 25
Frame Time: 0.008333
5.664579 17.005213 0.052046 11.494629 85.235973 37.097840 -9.079067 0.777964 6.306933 -10.462818 -6.088977 -50.913800 -3.402884 -0.657865 15.521509 0.302853 -0.129055 -5.569289 0.247000 -0.000000 -35.276100 10.218116 -5.284794 2.042487 5.414620 -4.060071 -0.656414 1.246620 -0.910223 9.018423 0.121007 8.019420 29.857896 4.674500 0.000000 -79.541700
5.899475 16.928569 0.040460 9.351511 85.220334 34.825113 -9.195334 0.843970 6.297790 -10.303245 -6.206752 -52.157828 -3.148642 -0.188033 19.211929 0.326417 -0.028359 -5.449658 0.250400 0.000000 -33.496500 10.213445 -5.369193 2.069403 5.203996 -4.408540 -0.502086 1.194959 -0.977552 10.116097 0.129704 9.212018 30.420723 5.462300 0.000000 -79.514901
6.131707 16.852255 0.028882 7.124048 85.154025 32.439782 -9.319230 0.890710 6.258080 -10.151026 -6.250146 -53.319960 -2.866456 0.272144 23.081935 0.365752 0.096585 -5.545370 0.241300 -0.000000 -31.228400 10.206842 -5.436455 2.090649 4.968227 -4.773406 -0.450162 1.127586 -1.047852 11.431876 0.131103 10.455326 30.966700 6.295001 -0.000000 -79.182600
6.360757 16.778316 0.017982 5.019082 85.025413 30.140828 -9.437701 0.917379 6.190651 -10.023984 -6.227851 -54.290837 -2.580990 0.689448 26.895441 0.423114 0.270321 -5.879640 0.221900 -0.000000 -28.792000 10.210599 -5.483955 2.096783 4.681149 -5.175085 -0.498215 1.040674 -1.120811 12.957326 0.118652 11.687513 31.508279 7.140000 0.000000 -78.489000
6.586326 16.708877 0.008112 3.305920 84.837001 28.195203 -9.540842 0.925869 6.099425 -9.946608 -6.158845 -54.993588 -2.315343 1.043653 30.473110 0.500562 0.514700 -6.473415 0.192501 -0.000000 -26.518800 10.235464 -5.511958 2.079571 4.317046 -5.640563 -0.651017 0.933129 -1.196087 14.678899 0.085643 12.835992 32.067550 7.960000 0.000000 -77.422400
6.808337 16.645718 -0.000410 2.185183 84.598259 26.805071 -9.624044 0.919028 5.987257 -9.947426 -6.054732 -55.391286 -2.087189 1.327403 33.702414 0.598303 0.836818 -7.338697 0.149300 -0.000000 -24.657000 10.286207 -5.523268 2.037662 3.861486 -6.176192 -0.911726 0.806768 -1.272836 16.572503 0.026811 13.792887 32.652648 8.691000 -0.000000 -75.992100
7.026776 16.590200 -0.007532 1.751395 84.317043 26.064805 -9.686015 0.900125 5.855475 -10.047457 -5.925830 -55.467508 -1.905739 1.541323 36.522144 0.717316 1.242859 -8.471718 0.085300 0.000000 -23.333799 10.363117 -5.519580 1.970284 3.305730 -6.781718 -1.273834 0.665631 -1.350398 18.608383 -0.060617 14.443424 33.263523 9.259101 0.000000 -74.243000
7.241784 16.543194 -0.013726 1.860775 83.990832 25.830130 -9.728403 0.875575 5.705922 -10.246076 -5.771271 -55.230510 -1.772638 1.691893 38.911815 0.858323 1.733424 -9.846290 -0.009300 -0.000000 -22.580900 10.460707 -5.499408 1.880213 2.661243 -7.433328 -1.718959 0.514078 -1.427320 20.747415 -0.176700 14.662584 33.889905 9.575000 -0.000000 -72.255000
7.453575 16.505094 -0.019532 2.325548 83.615826 25.911695 -9.752804 0.851887 5.540656 -10.532165 -5.590528 -54.696649 -1.684160 1.786964 40.874053 1.021579 2.308144 -11.410068 -0.144600 0.000001 -22.365400 10.573541 -5.459870 1.770656 1.944858 -8.104265 -2.221790 0.356414 -1.502379 22.948323 -0.320216 14.344981 34.504765 9.553500 0.000000 -70.135200
7.662476 16.475919 -0.025807 2.890065 83.187986 26.054248 -9.763514 0.835621 5.363344 -10.878653 -5.379710 -53.895150 -1.632652 1.835745 42.429448 1.205183 2.960134 -13.089779 -0.327900 -0.000000 -22.610600 10.692873 -5.397333 1.646936 1.187415 -8.756451 -2.753703 0.196185 -1.574024 25.167858 -0.489076 13.411075 35.061924 9.120000 -0.000000 -67.996500
7.868817 16.455330 -0.033060 3.474400 82.715824 26.179387 -9.763004 0.829142 5.178316 -11.267414 -5.149538 -52.852842 -1.608844 1.845144 43.603687 1.405525 3.683111 -14.796998 -0.561300 -0.000000 -23.194200 10.814738 -5.310601 1.512537 0.404965 -9.370686 -3.292688 0.038036 -1.642304 27.370413 -0.681203 11.844036 35.490318 8.240300 0.000000 -65.919900
8.073104 16.442796 -0.042222 3.885834 82.206702 26.103851 -9.759588 0.835292 4.992609 -11.658490 -4.900423 -51.617968 -1.602301 1.824706 44.438797 1.614942 4.456492 -16.443992 -0.839200 -0.000001 -23.959800 10.927898 -5.199871 1.374826 -0.358236 -9.909717 -3.820717 -0.114869 -1.706493 29.519341 -0.893189 9.667559 35.710815 6.915600 0.000000 -63.954900
8.275772 16.437694 -0.053698 4.119974 81.681537 25.834529 -9.757809 0.853438 4.813528 -12.030232 -4.648893 -50.233286 -1.603946 1.781326 44.976319 1.824458 5.259088 -17.949158 -1.148800 0.000000 -24.727600 11.028184 -5.069004 1.238292 -1.080108 -10.363541 -4.333747 -0.258271 -1.768053 31.590470 -1.120299 6.988561 35.637857 5.217300 0.000000 -62.096199
8.477185 16.439369 -0.067686 4.185962 81.163303 25.396035 -9.761742 0.882877 4.648878 -12.364109 -4.411591 -48.745533 -1.606577 1.721676 45.260393 2.024090 6.064045 -19.247431 -1.470900 -0.000000 -25.338100 11.112345 -4.924050 1.107201 -1.738358 -10.729697 -4.837517 -0.388645 -1.829030 33.565300 -1.355486 3.972380 35.204165 3.273900 0.000000 -60.310600
8.677713 16.447197 -0.084100 4.105523 80.675548 24.828188 -9.774257 0.923047 4.506082 -12.646853 -4.203568 -47.202624 -1.605520 1.651839 45.334127 2.204148 6.840373 -20.294629 -1.782900 0.000000 -25.692700 11.178542 -4.772356 0.985230 -2.313383 -11.014045 -5.346269 -0.503591 -1.891445 35.430117 -1.589766 0.821374 34.376898 1.252400 0.000000 -58.564100
8.877487 16.460658 -0.102518 3.938483 80.242589 24.206796 -9.795178 0.973444 4.390270 -12.878274 -4.038820 -45.643013 -1.598975 1.576152 45.232726 2.356929 7.558280 -21.068512 -2.062599 -0.000000 -25.773500 11.228393 -4.621086 0.873918 -2.798991 -11.235565 -5.877747 -0.601392 -1.957169 37.175299 -1.813070 -2.251657 33.164776 -0.670500 0.000000 -56.835100
9.076720 16.479287 -0.122573 3.662445 79.881202 23.530571 -9.826587 1.034351 4.306626 -13.048757 -3.916882 -44.114868 -1.587073 1.499308 44.991728 2.476228 8.183996 -21.571240 -2.290600 -0.000000 -25.642200 11.259989 -4.477047 0.777445 -3.173550 -11.404724 -6.458795 -0.682091 -2.025849 38.797703 -2.014934 -5.069261 31.606233 -2.350100 0.000000 -55.016401
9.274756 16.502959 -0.142897 3.455028 79.613225 22.972028 -9.860111 1.104537 4.249138 -13.191886 -3.848966 -42.607782 -1.573292 1.420760 44.617632 2.560853 8.702935 -21.821752 -2.457200 0.000000 -25.367400 11.283516 -4.341447 0.689026 -3.473056 -11.560604 -7.081853 -0.744578 -2.098018 40.276404 -2.189038 -7.494751 29.808881 -3.687400 0.000000 -53.436001
9.471929 16.531258 -0.163326 3.194689 79.440616 22.432982 -9.900473 1.184635 4.221334 -13.286640 -3.811318 -41.174115 -1.559939 1.344361 44.140381 2.608763 9.085909 -21.857161 -2.555500 -0.000000 -25.094300 11.293003 -4.218529 0.616692 -3.659858 -11.697055 -7.781475 -0.790505 -2.169921 41.620041 -2.327566 -9.464437 27.837335 -4.649800 0.000000 -51.855200
9.667715 16.564023 -0.182769 2.977229 79.370609 22.002199 -9.941939 1.273441 4.215328 -13.355353 -3.796720 -39.801826 -1.551224 1.268897 43.561092 2.622289 9.327309 -21.718241 -2.588800 0.000001 -24.914100 11.294946 -4.106792 0.555382 -3.758906 -11.838031 -8.551182 -0.819580 -2.240718 42.821844 -2.426819 -10.948452 25.786281 -5.243200 0.000000 -50.344100
9.861802 16.601043 -0.200562 2.819811 79.400770 21.693588 -9.982550 1.370000 4.224315 -13.405668 -3.787250 -38.487487 -1.550306 1.193895 42.883282 2.604128 9.424844 -21.444417 -2.564000 0.000000 -24.921199 11.291419 -4.004329 0.504373 -3.776731 -11.986014 -9.387806 -0.832706 -2.308132 43.878130 -2.486420 -11.969812 23.745007 -5.517800 0.000000 -48.997800
10.053985 16.642087 -0.216118 2.749428 79.524569 21.526595 -10.020268 1.473045 4.240845 -13.446106 -3.766023 -37.220984 -1.559437 1.118462 42.107354 2.557485 9.383377 -21.066438 -2.490000 -0.000000 -25.185200 11.284907 -3.908669 0.461607 -3.724763 -12.142513 -10.284745 -0.830724 -2.371400 44.792758 -2.507317 -12.571026 21.770618 -5.535700 0.000000 -47.744200
10.243872 16.686926 -0.229069 2.798548 79.732642 21.518058 -10.053632 1.581093 4.255224 -13.484293 -3.718102 -35.977845 -1.579544 1.041849 41.229944 2.485575 9.215727 -20.600838 -2.375300 0.000000 -25.765000 11.277580 -3.815781 0.423338 -3.617711 -12.301731 -11.219092 -0.815573 -2.429539 45.560496 -2.495204 -12.824665 19.934284 -5.375600 0.000000 -46.804700
10.431478 16.735198 -0.239283 2.972625 80.011996 21.664017 -10.082984 1.692820 4.261547 -13.520633 -3.629983 -34.746844 -1.609859 0.963887 40.253073 2.391012 8.935950 -20.049939 -2.226401 0.000000 -26.703200 11.270065 -3.723235 0.388870 -3.462567 -12.451482 -12.181235 -0.789385 -2.482514 46.191160 -2.455803 -12.803776 18.257134 -5.102000 -0.000000 -46.045700
10.616840 16.786567 -0.246817 3.277132 80.349624 21.959562 -10.109132 1.806788 4.255083 -13.553414 -3.494249 -33.516418 -1.648521 0.884872 39.181518 2.276255 8.560374 -19.407819 -2.048600 0.000000 -27.980400 11.262543 -3.628882 0.357291 -3.265141 -12.577144 -13.159584 -0.754531 -2.530787 46.697437 -2.396228 -12.584945 16.737021 -4.768400 0.000000 -45.367200
